<svg width="32" height="32" viewBox="0 0 32 32" fill="none" xmlns="http://www.w3.org/2000/svg">
<path fill-rule="evenodd" clip-rule="evenodd" d="M7.71731 18.6933C7.77497 18.7111 7.83377 18.7249 7.89331 18.7347C8.27054 19.6236 8.64565 20.5133 9.01864 21.404C9.68931 23.0067 10.3653 24.6573 10.5133 25.132C10.6986 25.716 10.8933 26.1133 11.1066 26.3853C11.2173 26.524 11.344 26.6467 11.4933 26.74C11.5717 26.7875 11.6548 26.8269 11.7413 26.8573C12.168 27.0173 12.5573 26.9507 12.8013 26.8693C12.9446 26.8207 13.0808 26.7534 13.2066 26.6693L13.2133 26.6667L16.9813 24.3173L21.3346 27.6533C21.3986 27.7022 21.468 27.7436 21.5426 27.7773C22.0653 28.004 22.572 28.084 23.0493 28.02C23.524 27.9533 23.9013 27.7547 24.1826 27.5293C24.5054 27.2687 24.7629 26.9363 24.9346 26.5587L24.9466 26.5293L24.9506 26.5187L24.9533 26.5133V26.5107L24.9546 26.5093C24.9765 26.4515 24.9943 26.3923 25.008 26.332L28.9813 6.29867C28.9923 6.23432 28.9985 6.16926 29 6.104C29 5.51734 28.7786 4.95867 28.26 4.62134C27.8146 4.332 27.32 4.31867 27.0066 4.34267C26.6706 4.36934 26.3586 4.452 26.1493 4.51867C26.0323 4.55644 25.9167 4.59824 25.8026 4.644L25.788 4.65067L3.50264 13.392L3.49997 13.3933C3.4244 13.4206 3.3501 13.4513 3.27731 13.4853C3.10052 13.5647 2.93099 13.6592 2.77064 13.768C2.46797 13.9747 1.77064 14.5427 1.88931 15.4813C1.98264 16.228 2.49464 16.688 2.80797 16.9093C2.97864 17.0307 3.14131 17.1173 3.26131 17.1747C3.31464 17.2013 3.42931 17.2467 3.47864 17.268L3.49197 17.272L7.71731 18.6933ZM26.568 6.49067H26.5653L26.5306 6.50534L4.21864 15.2587L4.18397 15.272L4.17064 15.276C4.12979 15.2918 4.08974 15.3096 4.05064 15.3293C4.08792 15.3503 4.12619 15.3694 4.16531 15.3867L8.35464 16.7973C8.42861 16.8247 8.5 16.8586 8.56797 16.8987L22.404 8.79867L22.4173 8.792C22.4713 8.75984 22.5265 8.7296 22.5826 8.70134C22.6786 8.652 22.832 8.58 23.0053 8.52667C23.1253 8.48934 23.4813 8.384 23.8653 8.508C24.0693 8.57164 24.2512 8.69166 24.3899 8.8542C24.5286 9.01675 24.6185 9.21521 24.6493 9.42667C24.699 9.61167 24.7003 9.80632 24.6533 9.992C24.56 10.3587 24.304 10.644 24.0706 10.8627C23.8706 11.0493 21.276 13.5507 18.7173 16.02L15.2333 19.38L14.6133 19.98L22.4426 25.9827C22.5484 26.0268 22.6631 26.0451 22.7773 26.036C22.8348 26.0281 22.8889 26.0041 22.9333 25.9667C22.9873 25.921 23.0336 25.867 23.0706 25.8067L23.0733 25.8053L26.9266 6.37467C26.8054 6.40451 26.6865 6.44283 26.5706 6.48934L26.568 6.49067ZM15.2866 23.016L13.724 21.8187L13.3453 24.2253L15.2866 23.016ZM12.2906 19.4427L13.844 17.9427L17.328 14.58L18.6253 13.3293L9.93197 18.4187L9.97864 18.528C10.5269 19.8232 11.0691 21.121 11.6053 22.4213L11.9826 20.0213C12.0171 19.7988 12.1256 19.5958 12.2906 19.4427Z" fill="white"/>
</svg>
